<svg xmlns="http://www.w3.org/2000/svg" width="120pt" height="120pt" viewBox="0 0 120 120" version="1.1">
<path stroke="none" fill-rule="nonzero" fill="rgb(20.784314%,20.784314%,20.784314%)" fill-opacity="1" d="M 60 12 C 41.59375 12 22.445312 16.148438 22.445312 16.148438 L 22.429688 16.164062 C 18.695312 16.910156 16.003906 20.191406 16 24 L 16 48 C 16 89.59375 56.085938 106.976562 56.085938 106.976562 C 57.28125 107.648438 58.628906 108 60 108 C 61.367188 107.996094 62.707031 107.644531 63.898438 106.976562 L 63.914062 106.976562 C 63.917969 106.976562 104 89.59375 104 48 L 104 24 C 104 20.179688 101.300781 16.890625 97.554688 16.148438 C 97.554688 16.148438 78.40625 12 60 12 Z M 60 40 C 66.628906 40 72 45.371094 72 52 C 72 57.214844 68.652344 61.613281 64 63.265625 L 64 76 C 64 78.207031 62.207031 80 60 80 C 57.792969 80 56 78.207031 56 76 L 56 63.265625 C 51.347656 61.613281 48 57.214844 48 52 C 48 45.371094 53.371094 40 60 40 Z M 60 40 "/>
</svg>