<svg xmlns="http://www.w3.org/2000/svg" width="192pt" height="192pt" viewBox="0 0 192 192" version="1.1">
<path stroke="none" fill-rule="nonzero" fill="rgb(20.784314%,20.784314%,20.784314%)" fill-opacity="1" d="M 96 15.8125 C 77.332031 15.8125 60.734375 29.945312 47.625 52.09375 C 36.257812 71.289062 28.9375 93.976562 28.9375 112.359375 C 28.9375 147.734375 59.332031 176.1875 96 176.1875 C 132.667969 176.1875 163.0625 147.742188 163.0625 112.359375 C 163.0625 93.976562 155.742188 71.273438 144.375 52.078125 C 131.265625 29.929688 114.664062 15.8125 96 15.8125 Z M 96 31.8125 C 106.152344 31.8125 119.03125 40.671875 130.609375 60.234375 C 140.601562 77.105469 147.0625 98.546875 147.0625 112.359375 C 147.0625 138.5625 124.464844 160.1875 96 160.1875 C 67.535156 160.1875 44.9375 138.554688 44.9375 112.359375 C 44.9375 98.546875 51.398438 77.121094 61.390625 60.25 C 72.96875 40.6875 85.851562 31.8125 96 31.8125 Z M 72 96 C 67.582031 96 64 99.582031 64 104 C 64 108.417969 67.582031 112 72 112 C 76.417969 112 80 108.417969 80 104 C 80 99.582031 76.417969 96 72 96 Z M 120 96 C 115.582031 96 112 99.582031 112 104 C 112 108.417969 115.582031 112 120 112 C 124.417969 112 128 108.417969 128 104 C 128 99.582031 124.417969 96 120 96 Z M 80 128 C 80 136.839844 87.160156 144 96 144 C 104.839844 144 112 136.839844 112 128 Z M 80 128 "/>
</svg>