<svg xmlns="http://www.w3.org/2000/svg" width="24pt" height="24pt" viewBox="0 0 24 24" version="1.1">
<path stroke="none" fill-rule="nonzero" fill="rgb(20.784314%,20.784314%,20.784314%)" fill-opacity="1" d="M 12 0 L 0 5 L 4 6.664062 L 4 11.902344 C 3.425781 12.449219 3 13.152344 3 14 C 3 15.242188 3.859375 16.164062 4.945312 16.613281 C 6.246094 19.722656 8.851562 22 12 22 C 15.148438 22 17.753906 19.722656 19.054688 16.613281 C 20.140625 16.164062 21 15.242188 21 14 C 21 13.152344 20.574219 12.449219 20 11.902344 L 20 6.664062 L 22 5.832031 L 22 11 L 24 11 L 24 5 Z M 7 10 L 17 10 C 17.550781 10 18 10.449219 18 11 L 18 12.851562 L 18.503906 13.140625 C 18.804688 13.3125 19 13.613281 19 14 C 19 14.515625 18.632812 14.914062 18.140625 14.980469 L 17.554688 15.0625 L 17.339844 15.613281 C 16.308594 18.300781 14.257812 20 12 20 C 9.742188 20 7.691406 18.300781 6.660156 15.613281 L 6.449219 15.0625 L 5.863281 14.980469 C 5.367188 14.914062 5 14.515625 5 14 C 5 13.613281 5.195312 13.3125 5.5 13.140625 L 6 12.851562 L 6 11 C 6 10.449219 6.449219 10 7 10 Z M 7 10 "/>
</svg>
